<svg xmlns="http://www.w3.org/2000/svg" viewBox="0 0 900 900">
  <defs>
    <linearGradient id="chrome" x1="0" x2="1">
      <stop offset="0%" stop-color="#ffffff"/>
      <stop offset="25%" stop-color="#8db3ff"/>
      <stop offset="50%" stop-color="#ffffff"/>
      <stop offset="75%" stop-color="#787878"/>
      <stop offset="100%" stop-color="#ffffff"/>
    </linearGradient>
  </defs>
  <rect x="28" y="28" width="844" height="844" rx="24" fill="none" stroke="url(#chrome)" stroke-width="28"/>
  <g fill="#ff8ad6" stroke="#fff" stroke-width="6">
    <path d="M118 148c-15-17-36-38-36-60 0-24 17-40 37-40 17 0 26 8 34 19 8-11 18-19 34-19 21 0 38 16 38 40 0 22-21 43-36 60l-36 35z"/>
    <path d="M782 148c-15-17-36-38-36-60 0-24 17-40 37-40 17 0 26 8 34 19 8-11 18-19 34-19 21 0 38 16 38 40 0 22-21 43-36 60l-36 35z"/>
    <path d="M118 748c-15-17-36-38-36-60 0-24 17-40 37-40 17 0 26 8 34 19 8-11 18-19 34-19 21 0 38 16 38 40 0 22-21 43-36 60l-36 35z"/>
    <path d="M782 748c-15-17-36-38-36-60 0-24 17-40 37-40 17 0 26 8 34 19 8-11 18-19 34-19 21 0 38 16 38 40 0 22-21 43-36 60l-36 35z"/>
  </g>
</svg>
