<svg xmlns="http://www.w3.org/2000/svg" viewBox="0 0 250 220">
  <defs>
    <linearGradient id="wing" x1="0" x2="1">
      <stop offset="0%" stop-color="#ffffff"/>
      <stop offset="100%" stop-color="#bff5ff"/>
    </linearGradient>
  </defs>
  <path d="M54 132c-24-26-28-56-6-82 17 6 33 22 45 50-8-36 3-66 36-90 29 28 41 58 36 92 14-23 33-34 59-34 9 31-4 57-36 81 19 0 34 5 45 15-21 18-42 24-66 15-13 15-28 24-45 24-17 0-32-8-46-23-23 8-45 2-67-16 14-12 29-18 45-18z" fill="url(#wing)" stroke="#fff" stroke-width="8" stroke-linejoin="round"/>
  <ellipse cx="125" cy="42" rx="22" ry="8" fill="none" stroke="#fff59f" stroke-width="6"/>
  <circle cx="102" cy="112" r="7" fill="#253046"/>
  <path d="M184 112l24 8-23 8" fill="#ffd782" stroke="#fff" stroke-width="4" stroke-linejoin="round"/>
  <path d="M116 126c10 8 18 11 26 11s16-3 26-11" fill="none" stroke="#ff8bd9" stroke-width="5" stroke-linecap="round"/>
  <circle cx="70" cy="54" r="8" fill="#fff59f"/>
  <circle cx="194" cy="56" r="8" fill="#fff59f"/>
</svg>
