<svg xmlns="http://www.w3.org/2000/svg" viewBox="0 0 220 200">
  <defs>
    <linearGradient id="g1" x1="0" x2="1" y1="0" y2="1">
      <stop offset="0%" stop-color="#fff7fb"/>
      <stop offset="35%" stop-color="#ff5fc4"/>
      <stop offset="70%" stop-color="#ff1d8d"/>
      <stop offset="100%" stop-color="#8400ff"/>
    </linearGradient>
    <filter id="sparkle">
      <feDropShadow dx="0" dy="0" stdDeviation="6" flood-color="#fff6b0"/>
    </filter>
  </defs>
  <path filter="url(#sparkle)" d="M110 184C72 150 12 112 12 56c0-24 17-44 42-44 20 0 33 11 46 29 13-18 26-29 46-29 25 0 42 20 42 44 0 56-60 94-98 128z" fill="url(#g1)" stroke="#fff" stroke-width="8"/>
  <path d="M64 48l10 8 8-13 5 14 15-1-12 9 5 14-12-8-12 9 3-14-13-8 15-2zM154 85l8 6 6-10 4 10 11-1-9 7 3 10-9-6-9 7 2-10-9-7 11-1z" fill="#fff9a8"/>
</svg>
