<svg xmlns="http://www.w3.org/2000/svg" viewBox="0 0 220 250">
  <defs>
    <linearGradient id="body" x1="0" x2="1" y1="0" y2="1">
      <stop offset="0%" stop-color="#fffefc"/>
      <stop offset="100%" stop-color="#ffd8ee"/>
    </linearGradient>
  </defs>
  <ellipse cx="110" cy="140" rx="70" ry="74" fill="url(#body)" stroke="#fff" stroke-width="8"/>
  <ellipse cx="82" cy="56" rx="22" ry="48" fill="url(#body)" stroke="#fff" stroke-width="7"/>
  <ellipse cx="138" cy="56" rx="22" ry="48" fill="url(#body)" stroke="#fff" stroke-width="7"/>
  <ellipse cx="82" cy="58" rx="10" ry="30" fill="#ffb4d8"/>
  <ellipse cx="138" cy="58" rx="10" ry="30" fill="#ffb4d8"/>
  <circle cx="86" cy="132" r="8" fill="#2c2436"/>
  <circle cx="134" cy="132" r="8" fill="#2c2436"/>
  <path d="M110 140c6 0 10 4 10 9s-4 9-10 9-10-4-10-9 4-9 10-9z" fill="#ff7cbf"/>
  <path d="M100 165c4 5 7 7 10 7s6-2 10-7" fill="none" stroke="#ff46a3" stroke-width="5" stroke-linecap="round"/>
  <path d="M46 188c22-16 42-24 64-24s42 8 64 24" fill="none" stroke="#fff08c" stroke-width="10" stroke-linecap="round"/>
  <path d="M170 78l16 8-4 18-15-10-15 10 3-18-14-8 18-2 8-16z" fill="#fff48d" stroke="#ff4ab5" stroke-width="4"/>
  <text x="110" y="236" text-anchor="middle" font-family="Comic Sans MS, Comic Sans, cursive" font-size="26" font-weight="700" fill="#ffef8a" stroke="#ff38a7" stroke-width="2.5">bisou</text>
</svg>
