<svg xmlns="http://www.w3.org/2000/svg" viewBox="0 0 240 180">
  <defs>
    <linearGradient id="sea" x1="0" x2="1">
      <stop offset="0%" stop-color="#87f4ff"/>
      <stop offset="100%" stop-color="#00a3ff"/>
    </linearGradient>
  </defs>
  <path d="M34 96c29-44 75-63 125-57 14 1 26 4 42 13-21 2-35 10-43 22 17 5 29 16 36 35-21-11-40-11-58 0-13 27-33 41-61 41-30 0-55-19-64-49 13 5 28 4 44-5-7-5-14-5-21 0 1-23 1-34 0-34z" fill="url(#sea)" stroke="#ffffff" stroke-width="6" stroke-linejoin="round"/>
  <path d="M165 40l9 18 20 3-15 14 4 20-18-10-18 10 3-20-14-14 20-3z" fill="#fff38b" stroke="#ff7ad6" stroke-width="4"/>
  <circle cx="105" cy="87" r="5" fill="#121212"/>
</svg>
