<svg xmlns="http://www.w3.org/2000/svg" viewBox="0 0 240 240">
  <defs>
    <linearGradient id="fur" x1="0" x2="1" y1="0" y2="1">
      <stop offset="0%" stop-color="#fff7f9"/>
      <stop offset="55%" stop-color="#ffd2f1"/>
      <stop offset="100%" stop-color="#ff8fca"/>
    </linearGradient>
    <linearGradient id="bow" x1="0" x2="1">
      <stop offset="0%" stop-color="#fffa8d"/>
      <stop offset="100%" stop-color="#ff49b6"/>
    </linearGradient>
    <filter id="glow">
      <feDropShadow dx="0" dy="0" stdDeviation="6" flood-color="#fff8a3"/>
    </filter>
  </defs>
  <circle cx="120" cy="128" r="74" fill="url(#fur)" stroke="#fff" stroke-width="8" filter="url(#glow)"/>
  <path d="M70 74L52 28l48 28zM170 74l18-46-48 28z" fill="url(#fur)" stroke="#fff" stroke-width="8" stroke-linejoin="round"/>
  <path d="M78 48c14-13 30-18 42-18s28 5 42 18l-12 16H90z" fill="url(#bow)" stroke="#fff" stroke-width="6"/>
  <circle cx="92" cy="118" r="9" fill="#2b1d36"/>
  <circle cx="148" cy="118" r="9" fill="#2b1d36"/>
  <ellipse cx="120" cy="138" rx="12" ry="8" fill="#ff73b8"/>
  <path d="M108 150c5 9 10 12 12 12s7-3 12-12" fill="none" stroke="#ff46a5" stroke-width="6" stroke-linecap="round"/>
  <path d="M68 138h-34M72 150H34M172 138h34M168 150h38" stroke="#fff" stroke-width="5" stroke-linecap="round"/>
  <path d="M54 182c19-12 42-18 66-18s47 6 66 18" fill="none" stroke="#fffb9c" stroke-width="10" stroke-linecap="round"/>
  <text x="120" y="220" text-anchor="middle" font-family="Comic Sans MS, Comic Sans, cursive" font-size="30" font-weight="700" fill="#fffb9c" stroke="#ff2d96" stroke-width="3">kitty glam</text>
</svg>
