<svg xmlns="http://www.w3.org/2000/svg" viewBox="0 0 240 180">
  <defs>
    <linearGradient id="lip" x1="0" x2="1">
      <stop offset="0%" stop-color="#ff81c9"/>
      <stop offset="45%" stop-color="#ff287c"/>
      <stop offset="100%" stop-color="#9c003f"/>
    </linearGradient>
  </defs>
  <path d="M28 90c24-34 56-54 92-54s68 20 92 54c-24 34-56 54-92 54S52 124 28 90z" fill="url(#lip)" stroke="#fff" stroke-width="8"/>
  <path d="M46 90c24-16 48-24 74-24s50 8 74 24c-24 8-48 12-74 12s-50-4-74-12z" fill="#ffb5df" opacity=".65"/>
  <path d="M76 92c15 11 30 17 44 17s29-6 44-17" fill="none" stroke="#8f0039" stroke-width="6" stroke-linecap="round"/>
  <circle cx="44" cy="46" r="8" fill="#fff59d"/>
  <circle cx="196" cy="46" r="8" fill="#fff59d"/>
</svg>
