<svg xmlns="http://www.w3.org/2000/svg" viewBox="0 0 240 240">
  <defs>
    <linearGradient id="fur" x1="0" x2="1">
      <stop offset="0%" stop-color="#d69b67"/>
      <stop offset="100%" stop-color="#9b562d"/>
    </linearGradient>
  </defs>
  <circle cx="120" cy="132" r="68" fill="url(#fur)" stroke="#fff1d7" stroke-width="8"/>
  <circle cx="72" cy="78" r="26" fill="url(#fur)" stroke="#fff1d7" stroke-width="7"/>
  <circle cx="168" cy="78" r="26" fill="url(#fur)" stroke="#fff1d7" stroke-width="7"/>
  <circle cx="72" cy="78" r="12" fill="#f0caa1"/>
  <circle cx="168" cy="78" r="12" fill="#f0caa1"/>
  <circle cx="95" cy="128" r="8" fill="#28160e"/>
  <circle cx="145" cy="128" r="8" fill="#28160e"/>
  <ellipse cx="120" cy="148" rx="20" ry="16" fill="#f3d5b4"/>
  <ellipse cx="120" cy="143" rx="9" ry="7" fill="#28160e"/>
  <path d="M110 154c4 5 7 7 10 7s6-2 10-7" fill="none" stroke="#28160e" stroke-width="4" stroke-linecap="round"/>
  <path d="M95 62l25 15 25-15v22H95z" fill="#ff4fab" stroke="#fff" stroke-width="6"/>
  <text x="120" y="80" text-anchor="middle" font-family="Arial Black, Gadget, sans-serif" font-size="16" fill="#fff9a1">LOVE</text>
  <path d="M80 184c18-12 31-18 40-18s22 6 40 18c-14 20-27 30-40 30s-26-10-40-30z" fill="#ff51a8" stroke="#fff" stroke-width="7"/>
  <text x="120" y="191" text-anchor="middle" font-family="Impact, Arial Black, sans-serif" font-size="18" fill="#fff8a4">4EVER</text>
</svg>
